<svg width="135" height="40" viewBox="0 0 135 40" fill="none" xmlns="http://www.w3.org/2000/svg">
<g clip-path="url(#clip0)">
<path d="M124.249 -7.3292e-06H10.7566C10.3429 -7.3292e-06 9.9342 -7.32904e-06 9.5216 0.00199267C9.17621 0.00399267 8.83358 0.00980267 8.48488 0.0146927C7.72733 0.0225945 6.97157 0.0816689 6.22416 0.191403C5.4778 0.303525 4.75482 0.514908 4.07967 0.818403C3.40534 1.12446 2.7892 1.52216 2.25357 1.99706C1.71514 2.47063 1.26632 3.01801 0.924356 3.61815C0.581453 4.2171 0.343683 4.85893 0.219258 5.52147C0.0936495 6.18318 0.0260586 6.85251 0.0170916 7.52347C0.00662229 7.83007 0.00551669 8.13769 0 8.44433V31.5586C0.00551669 31.8691 0.00662229 32.1699 0.0170916 32.4805C0.0260614 33.1514 0.0936522 33.8207 0.219258 34.4824C0.343339 35.1453 0.581124 35.7875 0.924356 36.3867C1.26616 36.9849 1.71505 37.5301 2.25357 38.001C2.78717 38.478 3.40371 38.876 4.07967 39.1797C4.75481 39.484 5.47772 39.6966 6.22416 39.8105C6.9717 39.9193 7.72738 39.9784 8.48488 39.9873C8.83358 39.9941 9.17621 39.998 9.5216 39.998C9.93419 40 10.343 40 10.7566 40H124.249C124.655 40 125.067 40 125.472 39.998C125.816 39.998 126.169 39.9941 126.512 39.9873C127.268 39.9789 128.023 39.9198 128.769 39.8105C129.518 39.6958 130.243 39.4833 130.921 39.1797C131.597 38.8758 132.213 38.4778 132.746 38.001C133.283 37.5282 133.733 36.9834 134.079 36.3867C134.42 35.7871 134.655 35.1449 134.777 34.4824C134.903 33.8206 134.973 33.1515 134.987 32.4805C134.991 32.1699 134.991 31.8691 134.991 31.5586C135 31.1953 135 30.834 135 30.4648V9.53612C135 9.16991 135 8.80663 134.991 8.44433C134.991 8.13769 134.991 7.83007 134.987 7.52343C134.973 6.85242 134.903 6.18323 134.777 5.52143C134.655 4.85927 134.419 4.2175 134.079 3.61811C133.383 2.41519 132.278 1.43602 130.921 0.818313C130.243 0.51556 129.518 0.304233 128.769 0.191313C128.023 0.0810955 127.269 0.0220004 126.512 0.0145527C126.169 0.00967267 125.816 0.00381267 125.472 0.00186267C125.067 -0.000137329 124.655 -0.000137329 124.249 -0.000137329V-7.3292e-06Z" fill="#A6A6A6"/>
<path d="M9.43001 39.128C9.08569 39.128 8.74969 39.1241 8.40807 39.1173C7.70037 39.1091 6.99433 39.0546 6.29574 38.9542C5.64433 38.8549 5.0133 38.6702 4.42345 38.4061C3.839 38.1443 3.30594 37.801 2.84469 37.3893C2.37676 36.9825 1.98718 36.5107 1.6914 35.9925C1.39236 35.471 1.18541 34.912 1.07775 34.335C0.961494 33.715 0.898592 33.088 0.889592 32.4596C0.882427 32.2487 0.873047 31.5463 0.873047 31.5463V8.44092C0.873047 8.44092 0.883037 7.74936 0.889648 7.54619C0.898266 6.91874 0.960802 6.29278 1.07671 5.67373C1.18457 5.09513 1.39168 4.53451 1.69088 4.01128C1.98557 3.49349 2.37299 3.02131 2.8381 2.61304C3.30269 2.20089 3.83745 1.85581 4.42289 1.59036C5.01139 1.32718 5.64123 1.14378 6.29132 1.0463C6.99221 0.944847 7.7007 0.889995 8.41085 0.882208L9.43056 0.869995H125.57L126.602 0.882698C127.306 0.890099 128.008 0.944461 128.702 1.04532C129.359 1.14403 129.995 1.32871 130.59 1.59329C131.763 2.12824 132.718 2.9746 133.32 4.01372C133.614 4.53334 133.818 5.08938 133.924 5.66299C134.042 6.28712 134.107 6.918 134.121 7.55059C134.124 7.83385 134.124 8.13811 134.124 8.44092C134.133 8.816 134.133 9.173 134.133 9.53294V30.466C134.133 30.8294 134.133 31.1839 134.124 31.5414C134.124 31.8667 134.124 32.1646 134.12 32.4713C134.107 33.0926 134.042 33.7122 133.927 34.3252C133.821 34.9064 133.615 35.4697 133.316 35.9955C133.018 36.5081 132.631 36.9758 132.169 37.3815C131.707 37.7954 131.173 38.1407 130.587 38.4042C129.994 38.6703 129.358 38.8557 128.702 38.9542C128.004 39.0551 127.297 39.1097 126.59 39.1173C126.259 39.1241 125.912 39.128 125.576 39.128L124.35 39.13L9.43001 39.128Z" fill="black"/>
<path d="M32.7973 20.3007C32.8081 19.466 33.0298 18.6476 33.4418 17.9217C33.8538 17.1957 34.4428 16.5858 35.1539 16.1486C34.7021 15.5035 34.1062 14.9725 33.4134 14.598C32.7205 14.2234 31.9499 14.0156 31.1627 13.9909C29.4835 13.8147 27.8555 14.9958 26.9998 14.9958C26.1275 14.9958 24.81 14.0084 23.3913 14.0376C22.4736 14.0673 21.5793 14.3341 20.7954 14.8122C20.0115 15.2902 19.3649 15.9632 18.9184 16.7655C16.9844 20.1139 18.427 25.035 20.2796 27.7416C21.2065 29.0669 22.2898 30.5474 23.7072 30.4949C25.0943 30.4373 25.6123 29.6104 27.2866 29.6104C28.9454 29.6104 29.4314 30.4949 30.8776 30.4615C32.366 30.4373 33.3038 29.1303 34.1981 27.7924C34.8641 26.848 35.3766 25.8043 35.7166 24.6998C34.8518 24.3341 34.1139 23.7219 33.5948 22.9396C33.0757 22.1573 32.7983 21.2395 32.7973 20.3007Z" fill="white"/>
<path d="M30.0656 12.2109C30.8772 11.2367 31.277 9.98449 31.1802 8.72026C29.9403 8.85048 28.7951 9.44304 27.9726 10.3799C27.5704 10.8375 27.2624 11.37 27.0662 11.9467C26.87 12.5235 26.7893 13.1333 26.8289 13.7413C27.449 13.7476 28.0625 13.6132 28.6232 13.3481C29.1838 13.0831 29.6771 12.6942 30.0656 12.2109Z" fill="white"/>
<path d="M50.3308 27.1396H45.5974L44.4607 30.4961H42.4558L46.9392 18.0781H49.0222L53.5056 30.4961H51.4665L50.3308 27.1396ZM46.0876 25.5908H49.8396L47.99 20.1435H47.9382L46.0876 25.5908Z" fill="white"/>
<path d="M63.1882 25.9697C63.1882 28.7832 61.6824 30.5908 59.4099 30.5908C58.8343 30.6209 58.2618 30.4883 57.758 30.2082C57.2542 29.928 56.8395 29.5117 56.5613 29.0068H56.5183V33.4912H54.6599V21.4424H56.4587V22.9482H56.4929C56.7839 22.4458 57.2056 22.0316 57.7132 21.7497C58.2209 21.4679 58.7954 21.3289 59.3757 21.3476C61.6736 21.3477 63.1882 23.1641 63.1882 25.9697ZM61.2781 25.9697C61.2781 24.1367 60.3308 22.9316 58.8855 22.9316C57.4656 22.9316 56.5105 24.1621 56.5105 25.9697C56.5105 27.7939 57.4656 29.0156 58.8855 29.0156C60.3308 29.0156 61.2781 27.8193 61.2781 25.9697Z" fill="white"/>
<path d="M73.1529 25.9697C73.1529 28.7832 71.647 30.5908 69.3746 30.5908C68.7989 30.6209 68.2264 30.4883 67.7226 30.2082C67.2188 29.928 66.8041 29.5117 66.5259 29.0068H66.4829V33.4912H64.6245V21.4424H66.4234V22.9482H66.4575C66.7485 22.4458 67.1702 22.0316 67.6779 21.7497C68.1855 21.4679 68.76 21.3289 69.3404 21.3477C71.6382 21.3477 73.1529 23.1641 73.1529 25.9697ZM71.2427 25.9697C71.2427 24.1367 70.2955 22.9316 68.8501 22.9316C67.4302 22.9316 66.4751 24.1621 66.4751 25.9697C66.4751 27.7939 67.4302 29.0156 68.8501 29.0156C70.2955 29.0156 71.2427 27.8193 71.2427 25.9697Z" fill="white"/>
<path d="M79.7388 27.0361C79.8765 28.2676 81.0728 29.0761 82.7076 29.0761C84.274 29.0761 85.4009 28.2675 85.4009 27.1572C85.4009 26.1933 84.7212 25.6162 83.1119 25.2207L81.5025 24.833C79.2222 24.2822 78.1636 23.2158 78.1636 21.4853C78.1636 19.3427 80.0308 17.871 82.6822 17.871C85.3062 17.871 87.105 19.3427 87.1656 21.4853H85.2896C85.1773 20.246 84.1529 19.498 82.6558 19.498C81.1587 19.498 80.1343 20.2548 80.1343 21.3564C80.1343 22.2343 80.7886 22.7509 82.3892 23.1464L83.7573 23.4823C86.3052 24.0849 87.3638 25.1083 87.3638 26.9247C87.3638 29.248 85.5132 30.703 82.5698 30.703C79.8159 30.703 77.9566 29.2821 77.8364 27.036L79.7388 27.0361Z" fill="white"/>
<path d="M91.3745 19.2998V21.4424H93.0962V22.914H91.3745V27.9053C91.3745 28.6806 91.7193 29.042 92.4761 29.042C92.6805 29.0384 92.8845 29.0241 93.0874 28.999V30.4619C92.7471 30.5254 92.4013 30.5542 92.0552 30.5478C90.2222 30.5478 89.5073 29.8593 89.5073 28.1035V22.914H88.1909V21.4424H89.5073V19.2998H91.3745Z" fill="white"/>
<path d="M94.0935 25.9697C94.0935 23.1211 95.7712 21.3311 98.3874 21.3311C101.012 21.3311 102.682 23.1211 102.682 25.9697C102.682 28.8262 101.021 30.6084 98.3874 30.6084C95.7546 30.6084 94.0935 28.8262 94.0935 25.9697ZM100.789 25.9697C100.789 24.0156 99.8933 22.8623 98.3874 22.8623C96.8816 22.8623 95.987 24.0244 95.987 25.9697C95.987 27.9316 96.8816 29.0762 98.3874 29.0762C99.8933 29.0762 100.789 27.9316 100.789 25.9697Z" fill="white"/>
<path d="M104.214 21.4424H105.987V22.9834H106.03C106.15 22.5021 106.432 22.0768 106.828 21.7789C107.225 21.481 107.712 21.3287 108.208 21.3476C108.422 21.3469 108.635 21.3701 108.844 21.417V23.1552C108.574 23.0726 108.292 23.0347 108.009 23.0429C107.739 23.032 107.47 23.0796 107.22 23.1825C106.971 23.2854 106.746 23.4411 106.562 23.639C106.378 23.8369 106.239 24.0722 106.155 24.3289C106.07 24.5856 106.042 24.8575 106.073 25.1259V30.4961H104.214V21.4424Z" fill="white"/>
<path d="M117.413 27.8369C117.163 29.4804 115.562 30.6084 113.514 30.6084C110.88 30.6084 109.246 28.8437 109.246 26.0127C109.246 23.1728 110.889 21.331 113.436 21.331C115.941 21.331 117.516 23.0517 117.516 25.7969V26.4336H111.122V26.5459C111.092 26.8791 111.134 27.2147 111.244 27.5306C111.354 27.8464 111.53 28.1352 111.761 28.3778C111.991 28.6203 112.27 28.8111 112.58 28.9374C112.89 29.0637 113.223 29.1226 113.557 29.1103C113.996 29.1515 114.437 29.0498 114.814 28.8203C115.191 28.5909 115.483 28.246 115.648 27.8369H117.413ZM111.13 25.1347H115.657C115.674 24.8352 115.628 24.5353 115.523 24.2541C115.419 23.9729 115.257 23.7164 115.049 23.5006C114.84 23.2849 114.589 23.1145 114.312 23.0003C114.034 22.8861 113.736 22.8305 113.436 22.8369C113.134 22.8351 112.834 22.8932 112.553 23.008C112.273 23.1227 112.019 23.2918 111.805 23.5054C111.59 23.7191 111.42 23.973 111.305 24.2527C111.189 24.5323 111.13 24.8321 111.13 25.1348V25.1347Z" fill="white"/>
<path d="M45.8545 8.731C46.2441 8.70304 46.6351 8.7619 46.9992 8.90333C47.3633 9.04477 47.6915 9.26525 47.9601 9.54887C48.2287 9.8325 48.431 10.1722 48.5524 10.5435C48.6738 10.9147 48.7113 11.3083 48.6621 11.6958C48.6621 13.6021 47.6319 14.6978 45.8545 14.6978H43.6992V8.731H45.8545ZM44.626 13.854H45.751C46.0294 13.8706 46.308 13.825 46.5665 13.7204C46.8251 13.6158 47.057 13.4548 47.2455 13.2492C47.434 13.0437 47.5743 12.7987 47.6562 12.5321C47.738 12.2654 47.7594 11.9839 47.7188 11.708C47.7565 11.4332 47.7329 11.1534 47.6498 10.8887C47.5667 10.6241 47.4261 10.3811 47.238 10.1771C47.0499 9.9732 46.8191 9.81339 46.562 9.70916C46.3049 9.60492 46.028 9.55884 45.751 9.57421H44.626V13.854Z" fill="white"/>
<path d="M49.709 12.4443C49.6807 12.1484 49.7146 11.8498 49.8084 11.5678C49.9023 11.2857 50.054 11.0264 50.254 10.8064C50.4539 10.5864 50.6976 10.4106 50.9695 10.2904C51.2413 10.1701 51.5353 10.108 51.8326 10.108C52.1298 10.108 52.4238 10.1701 52.6957 10.2904C52.9675 10.4106 53.2112 10.5864 53.4112 10.8064C53.6111 11.0264 53.7629 11.2857 53.8567 11.5678C53.9506 11.8498 53.9844 12.1484 53.9561 12.4443C53.985 12.7406 53.9515 13.0395 53.8579 13.3221C53.7643 13.6046 53.6127 13.8644 53.4127 14.0848C53.2127 14.3052 52.9688 14.4814 52.6967 14.6019C52.4245 14.7224 52.1302 14.7847 51.8326 14.7847C51.535 14.7847 51.2406 14.7224 50.9685 14.6019C50.6964 14.4814 50.4525 14.3052 50.2525 14.0848C50.0525 13.8644 49.9008 13.6046 49.8072 13.3221C49.7136 13.0395 49.6802 12.7406 49.709 12.4443ZM53.042 12.4443C53.042 11.4683 52.6036 10.8975 51.834 10.8975C51.0616 10.8975 50.627 11.4683 50.627 12.4443C50.627 13.4282 51.0616 13.9946 51.834 13.9946C52.6036 13.9946 53.0421 13.4243 53.0421 12.4443H53.042Z" fill="white"/>
<path d="M59.6018 14.6977H58.6799L57.7492 11.3813H57.6789L56.7522 14.6977H55.8391L54.5979 10.1948H55.4992L56.3059 13.6308H56.3723L57.2981 10.1948H58.1506L59.0764 13.6308H59.1467L59.9494 10.1948H60.8381L59.6018 14.6977Z" fill="white"/>
<path d="M61.8821 10.1948H62.7375V10.9101H62.8039C62.9166 10.6532 63.1066 10.4379 63.3475 10.294C63.5883 10.1502 63.8681 10.0852 64.1477 10.1079C64.3668 10.0914 64.5868 10.1245 64.7914 10.2046C64.996 10.2846 65.1799 10.4098 65.3296 10.5706C65.4793 10.7314 65.5909 10.9239 65.6561 11.1337C65.7213 11.3435 65.7384 11.5653 65.7063 11.7827V14.6977H64.8176V12.0059C64.8176 11.2822 64.5032 10.9224 63.8459 10.9224C63.6972 10.9154 63.5487 10.9407 63.4106 10.9966C63.2726 11.0524 63.1482 11.1374 63.0461 11.2458C62.944 11.3542 62.8665 11.4834 62.8189 11.6245C62.7714 11.7656 62.755 11.9154 62.7707 12.0635V14.6977H61.8821V10.1948Z" fill="white"/>
<path d="M67.1223 8.437H68.011V14.6977H67.1223V8.437Z" fill="white"/>
<path d="M69.2461 12.4443C69.2178 12.1484 69.2517 11.8498 69.3456 11.5677C69.4394 11.2857 69.5912 11.0263 69.7912 10.8063C69.9911 10.5863 70.2349 10.4106 70.5067 10.2903C70.7786 10.17 71.0726 10.1079 71.3699 10.1079C71.6672 10.1079 71.9612 10.17 72.2331 10.2903C72.5049 10.4106 72.7487 10.5863 72.9486 10.8063C73.1486 11.0263 73.3004 11.2857 73.3942 11.5677C73.4881 11.8498 73.522 12.1484 73.4937 12.4443C73.5225 12.7406 73.489 13.0396 73.3954 13.3221C73.3018 13.6046 73.1501 13.8644 72.9501 14.0848C72.7501 14.3052 72.5061 14.4814 72.234 14.6019C71.9619 14.7224 71.6675 14.7847 71.3699 14.7847C71.0723 14.7847 70.7779 14.7224 70.5058 14.6019C70.2337 14.4814 69.9898 14.3052 69.7897 14.0848C69.5897 13.8644 69.438 13.6046 69.3444 13.3221C69.2508 13.0396 69.2173 12.7406 69.2461 12.4443ZM72.5791 12.4443C72.5791 11.4683 72.1406 10.8975 71.3711 10.8975C70.5987 10.8975 70.1641 11.4683 70.1641 12.4443C70.1641 13.4282 70.5987 13.9946 71.3711 13.9946C72.1407 13.9946 72.5791 13.4243 72.5791 12.4443Z" fill="white"/>
<path d="M74.4292 13.4243C74.4292 12.6138 75.0327 12.1465 76.104 12.0801L77.3238 12.0098V11.6211C77.3238 11.1455 77.0093 10.877 76.4019 10.877C75.9058 10.877 75.562 11.0591 75.4634 11.3774H74.603C74.6939 10.604 75.4214 10.1079 76.4429 10.1079C77.5718 10.1079 78.2085 10.6699 78.2085 11.6211V14.6978H77.353V14.0649H77.2827C77.14 14.2919 76.9396 14.477 76.702 14.6012C76.4644 14.7254 76.198 14.7843 75.9302 14.7719C75.7412 14.7916 75.5501 14.7714 75.3693 14.7127C75.1886 14.654 75.0221 14.5581 74.8807 14.4312C74.7393 14.3042 74.6261 14.149 74.5483 13.9756C74.4705 13.8022 74.43 13.6144 74.4292 13.4243ZM77.3238 13.0395V12.6631L76.2241 12.7334C75.604 12.7749 75.3228 12.9858 75.3228 13.3828C75.3228 13.7881 75.6743 14.0239 76.1578 14.0239C76.2994 14.0383 76.4425 14.024 76.5785 13.9819C76.7145 13.9398 76.8407 13.8708 76.9494 13.7789C77.0582 13.6871 77.1474 13.5743 77.2117 13.4473C77.276 13.3202 77.3141 13.1816 77.3238 13.0395Z" fill="white"/>
<path d="M79.3767 12.4443C79.3767 11.0215 80.1081 10.1201 81.2458 10.1201C81.5272 10.1071 81.8065 10.1746 82.0511 10.3144C82.2956 10.4543 82.4952 10.6609 82.6267 10.9101H82.6931V8.437H83.5818V14.6977H82.7302V13.9863H82.6599C82.5183 14.2338 82.3117 14.4378 82.0624 14.5763C81.8132 14.7148 81.5308 14.7824 81.2458 14.7719C80.1003 14.772 79.3767 13.8706 79.3767 12.4443ZM80.2947 12.4443C80.2947 13.3994 80.7449 13.9741 81.4978 13.9741C82.2468 13.9741 82.7097 13.3911 82.7097 12.4482C82.7097 11.5098 82.242 10.9185 81.4978 10.9185C80.7497 10.9185 80.2947 11.4971 80.2947 12.4443Z" fill="white"/>
<path d="M87.2586 12.4443C87.2302 12.1484 87.2641 11.8498 87.3579 11.5678C87.4518 11.2857 87.6035 11.0264 87.8035 10.8064C88.0034 10.5864 88.2471 10.4106 88.519 10.2904C88.7908 10.1701 89.0848 10.108 89.3821 10.108C89.6794 10.108 89.9733 10.1701 90.2452 10.2904C90.5171 10.4106 90.7608 10.5864 90.9607 10.8064C91.1606 11.0264 91.3124 11.2857 91.4062 11.5678C91.5001 11.8498 91.5339 12.1484 91.5056 12.4443C91.5345 12.7406 91.501 13.0395 91.4074 13.3221C91.3138 13.6046 91.1622 13.8644 90.9622 14.0848C90.7622 14.3052 90.5183 14.4814 90.2462 14.6019C89.974 14.7224 89.6797 14.7847 89.3821 14.7847C89.0845 14.7847 88.7901 14.7224 88.518 14.6019C88.2459 14.4814 88.002 14.3052 87.802 14.0848C87.602 13.8644 87.4503 13.6046 87.3567 13.3221C87.2632 13.0395 87.2297 12.7406 87.2586 12.4443ZM90.5916 12.4443C90.5916 11.4683 90.1531 10.8975 89.3836 10.8975C88.6111 10.8975 88.1766 11.4683 88.1766 12.4443C88.1766 13.4282 88.6111 13.9946 89.3836 13.9946C90.1531 13.9946 90.5916 13.4243 90.5916 12.4443Z" fill="white"/>
<path d="M92.698 10.1948H93.5534V10.9101H93.6199C93.7325 10.6532 93.9225 10.4379 94.1634 10.294C94.4043 10.1502 94.684 10.0852 94.9636 10.1079C95.1827 10.0914 95.4027 10.1245 95.6073 10.2046C95.8119 10.2846 95.9959 10.4098 96.1455 10.5706C96.2952 10.7314 96.4068 10.9239 96.472 11.1337C96.5372 11.3435 96.5544 11.5653 96.5222 11.7827V14.6977H95.6335V12.0059C95.6335 11.2822 95.3191 10.9224 94.6619 10.9224C94.5131 10.9154 94.3646 10.9407 94.2265 10.9966C94.0885 11.0524 93.9641 11.1374 93.862 11.2458C93.7599 11.3542 93.6824 11.4834 93.6349 11.6245C93.5873 11.7656 93.5709 11.9154 93.5866 12.0635V14.6977H92.698V10.1948Z" fill="white"/>
<path d="M101.544 9.07373V10.2153H102.519V10.9639H101.544V13.2793C101.544 13.751 101.738 13.9575 102.18 13.9575C102.294 13.9572 102.407 13.9503 102.519 13.937V14.6772C102.36 14.7058 102.198 14.721 102.036 14.7226C101.047 14.7226 100.654 14.375 100.654 13.5068V10.9638H99.9392V10.2153H100.654V9.07373H101.544Z" fill="white"/>
<path d="M103.733 8.437H104.614V10.9184H104.684C104.802 10.6591 104.998 10.4425 105.243 10.2982C105.489 10.1538 105.773 10.0888 106.057 10.1118C106.275 10.0999 106.493 10.1363 106.695 10.2184C106.898 10.3004 107.079 10.4261 107.227 10.5864C107.376 10.7468 107.486 10.9378 107.552 11.146C107.618 11.3541 107.637 11.5742 107.608 11.7905V14.6977H106.718V12.0097C106.718 11.2905 106.383 10.9262 105.756 10.9262C105.603 10.9137 105.449 10.9347 105.305 10.9878C105.162 11.0408 105.031 11.1247 104.923 11.2334C104.815 11.3421 104.732 11.4731 104.68 11.6173C104.628 11.7614 104.608 11.9152 104.622 12.0678V14.6977H103.733V8.437Z" fill="white"/>
<path d="M112.79 13.4819C112.669 13.8935 112.407 14.2495 112.051 14.4876C111.694 14.7258 111.265 14.8309 110.839 14.7847C110.542 14.7925 110.247 14.7357 109.975 14.6181C109.702 14.5006 109.458 14.3252 109.26 14.1041C109.063 13.8829 108.915 13.6214 108.828 13.3375C108.742 13.0537 108.718 12.7544 108.758 12.4604C108.719 12.1656 108.743 11.8656 108.83 11.581C108.916 11.2963 109.063 11.0335 109.26 10.8104C109.457 10.5874 109.699 10.4092 109.971 10.288C110.243 10.1668 110.537 10.1054 110.835 10.1079C112.088 10.1079 112.843 10.9639 112.843 12.3779V12.688H109.664V12.7378C109.65 12.903 109.671 13.0694 109.725 13.2261C109.779 13.3829 109.865 13.5266 109.978 13.648C110.091 13.7695 110.228 13.866 110.38 13.9314C110.533 13.9968 110.697 14.0296 110.863 14.0278C111.076 14.0533 111.291 14.015 111.482 13.9178C111.672 13.8206 111.83 13.6689 111.934 13.4819H112.79ZM109.664 12.0308H111.938C111.949 11.8796 111.929 11.7278 111.878 11.5851C111.827 11.4424 111.747 11.3119 111.642 11.2021C111.538 11.0922 111.412 11.0054 111.272 10.9472C111.132 10.889 110.981 10.8608 110.83 10.8643C110.676 10.8623 110.523 10.8912 110.381 10.9491C110.239 11.0071 110.109 11.0929 110.001 11.2016C109.892 11.3104 109.806 11.4397 109.748 11.5821C109.691 11.7245 109.662 11.8771 109.664 12.0308Z" fill="white"/>
</g>
<defs>
<clipPath id="clip0">
<rect width="135" height="40" fill="white"/>
</clipPath>
</defs>
</svg>
