<svg width="135" height="40" viewBox="0 0 135 40" fill="none" xmlns="http://www.w3.org/2000/svg">
<g clip-path="url(#clip0)">
<path d="M130 0H5C2.23858 0 0 2.23858 0 5V35C0 37.7614 2.23858 40 5 40H130C132.761 40 135 37.7614 135 35V5C135 2.23858 132.761 0 130 0Z" fill="black"/>
<path d="M130 0.799998C131.114 0.801285 132.181 1.24423 132.968 2.03165C133.756 2.81907 134.199 3.88666 134.2 5.0002V35.0002C134.199 36.1137 133.756 37.1813 132.968 37.9687C132.181 38.7561 131.114 39.1991 130 39.2004H5C3.88645 39.1991 2.81888 38.7562 2.0315 37.9688C1.24412 37.1813 0.801231 36.1137 0.8 35.0002V5.0002C0.801212 3.88664 1.24409 2.81904 2.03148 2.03162C2.81886 1.2442 3.88644 0.801264 5 0.799998H130ZM130 0.000198364H5C3.67511 0.00407646 2.40559 0.532106 1.46875 1.46895C0.531908 2.40579 0.0038781 3.67531 0 5.0002V35.0002C0.0038781 36.3251 0.531908 37.5946 1.46875 38.5314C2.40559 39.4683 3.67511 39.9963 5 40.0002H130C131.325 39.9963 132.594 39.4683 133.531 38.5314C134.468 37.5946 134.996 36.3251 135 35.0002V5.0002C134.996 3.67531 134.468 2.40579 133.531 1.46895C132.594 0.532106 131.325 0.00407646 130 0.000198364Z" fill="#A6A6A6"/>
<path d="M47.4183 10.2433C47.4365 10.6102 47.3798 10.977 47.2517 11.3214C47.1236 11.6657 46.9267 11.9804 46.6731 12.2462C46.3889 12.541 46.0456 12.7724 45.6658 12.9254C45.286 13.0783 44.8782 13.1494 44.469 13.1339C44.0572 13.1376 43.6489 13.0589 43.2679 12.9025C42.887 12.7461 42.5411 12.5152 42.2507 12.2232C41.9603 11.9313 41.7312 11.5842 41.5768 11.2024C41.4225 10.8206 41.346 10.4119 41.3519 10.0001C41.3461 9.58833 41.4226 9.17954 41.5769 8.79776C41.7313 8.41598 41.9604 8.0689 42.2508 7.77691C42.5412 7.48491 42.887 7.2539 43.2679 7.09744C43.6489 6.94097 44.0572 6.86222 44.469 6.86579C44.8924 6.86451 45.3115 6.95011 45.7005 7.11729C46.0618 7.26373 46.3833 7.49344 46.639 7.78769L46.1116 8.31549C45.9106 8.07894 45.658 7.89173 45.3732 7.7683C45.0884 7.64486 44.779 7.58851 44.469 7.60359C44.1569 7.60198 43.8477 7.66336 43.5599 7.78407C43.2721 7.90479 43.0117 8.08234 42.7941 8.3061C42.5766 8.52986 42.4064 8.79522 42.2938 9.0863C42.1813 9.37738 42.1286 9.68818 42.139 10.0001C42.1316 10.4673 42.263 10.9262 42.5167 11.3186C42.7704 11.7109 43.1349 12.0192 43.564 12.2041C43.9931 12.3891 44.4675 12.4424 44.9269 12.3574C45.3864 12.2724 45.8103 12.0529 46.1448 11.7267C46.4527 11.3949 46.6312 10.9636 46.6477 10.5113H44.469V9.79059H47.3763C47.4038 9.93993 47.4178 10.0915 47.4183 10.2433Z" fill="white" stroke="white" stroke-width="0.2" stroke-miterlimit="10"/>
<path d="M52.0278 7.73741H49.2954V9.63971H51.7593V10.3605H49.2954V12.2628H52.0278V13.0001H48.5249V7.00011H52.0278V7.73741Z" fill="white" stroke="white" stroke-width="0.2" stroke-miterlimit="10"/>
<path d="M55.2786 13.0001H54.5071V7.73741H52.8313V7.00011H56.9544V7.73741H55.2786V13.0001Z" fill="white" stroke="white" stroke-width="0.2" stroke-miterlimit="10"/>
<path d="M59.938 13.0001V7.00011H60.7085V13.0001H59.938Z" fill="white" stroke="white" stroke-width="0.2" stroke-miterlimit="10"/>
<path d="M64.1284 13.0001H63.3569V7.73741H61.6812V7.00011H65.8042V7.73741H64.1284V13.0001Z" fill="white" stroke="white" stroke-width="0.2" stroke-miterlimit="10"/>
<path d="M73.6092 12.2247C73.0252 12.8069 72.2342 13.1339 71.4095 13.1339C70.5848 13.1339 69.7938 12.8069 69.2098 12.2247C68.9209 11.9321 68.6938 11.5843 68.5419 11.2022C68.3901 10.82 68.3167 10.4112 68.326 10.0001C68.3167 9.58898 68.3901 9.18019 68.5419 8.79803C68.6938 8.41586 68.9209 8.06813 69.2098 7.7755C69.4985 7.48677 69.8412 7.2578 70.2185 7.1017C70.5957 6.9456 71.0001 6.86544 71.4084 6.8658C71.8166 6.86616 72.2208 6.94704 72.5978 7.10381C72.9748 7.26058 73.3172 7.49015 73.6053 7.7794C73.8944 8.07126 74.122 8.41821 74.2745 8.79968C74.427 9.18115 74.5013 9.58936 74.493 10.0001C74.5021 10.4112 74.4285 10.8199 74.2767 11.202C74.1249 11.5842 73.8979 11.9319 73.6092 12.2247ZM69.7791 11.7223C70.2116 12.1541 70.7978 12.3966 71.409 12.3966C72.0202 12.3966 72.6064 12.1541 73.0389 11.7223C73.2607 11.4952 73.4342 11.2255 73.5488 10.9295C73.6634 10.6335 73.7169 10.3173 73.7059 10.0001C73.7169 9.68286 73.6634 9.36668 73.5488 9.07068C73.4342 8.77467 73.2607 8.50498 73.0389 8.2779C72.6064 7.84611 72.0202 7.60359 71.409 7.60359C70.7978 7.60359 70.2116 7.84611 69.7791 8.2779C69.5576 8.50516 69.3844 8.77491 69.27 9.07088C69.1555 9.36686 69.1021 9.68295 69.1131 10.0001C69.1021 10.3172 69.1555 10.6333 69.27 10.9293C69.3844 11.2253 69.5576 11.495 69.7791 11.7223Z" fill="white" stroke="white" stroke-width="0.2" stroke-miterlimit="10"/>
<path d="M75.5752 13.0001V7.00011H76.5137L79.4297 11.6676H79.4629L79.4297 10.5113V7.00011H80.2012V13.0001H79.3965L76.3457 8.10651H76.3125L76.3457 9.26281V13.0001H75.5752Z" fill="white" stroke="white" stroke-width="0.2" stroke-miterlimit="10"/>
<path d="M68.1358 21.7517C67.2953 21.7549 66.4746 22.007 65.7773 22.4763C65.08 22.9456 64.5374 23.611 64.2179 24.3884C63.8985 25.1659 63.8166 26.0205 63.9825 26.8445C64.1484 27.6685 64.5548 28.4248 65.1502 29.018C65.7457 29.6112 66.5036 30.0147 67.3282 30.1775C68.1528 30.3403 69.0071 30.2551 69.7833 29.9327C70.5596 29.6103 71.2229 29.0652 71.6895 28.3661C72.1561 27.667 72.4052 26.8453 72.4051 26.0048C72.4134 25.4426 72.3085 24.8845 72.0967 24.3637C71.8848 23.8429 71.5704 23.37 71.1721 22.9732C70.7738 22.5764 70.2997 22.2638 69.7781 22.0539C69.2565 21.8441 68.698 21.7413 68.1358 21.7517ZM68.1358 28.5825C67.6182 28.6194 67.1015 28.4996 66.6529 28.2387C66.2043 27.9778 65.8446 27.5879 65.6208 27.1198C65.3969 26.6516 65.3191 26.1269 65.3976 25.6139C65.4761 25.101 65.7072 24.6235 66.0609 24.2438C66.4145 23.864 66.8743 23.5995 67.3804 23.4847C67.8865 23.3699 68.4154 23.4101 68.8983 23.6001C69.3812 23.7902 69.7957 24.1212 70.0878 24.5501C70.38 24.9789 70.5362 25.4859 70.5362 26.0048C70.552 26.3326 70.5019 26.6603 70.3891 26.9685C70.2762 27.2767 70.1029 27.5592 69.8792 27.7994C69.6555 28.0396 69.3861 28.2327 69.0867 28.3671C68.7873 28.5016 68.464 28.5748 68.1358 28.5825ZM58.8224 21.7517C57.9819 21.7549 57.1612 22.007 56.4639 22.4763C55.7666 22.9455 55.2239 23.6109 54.9045 24.3883C54.585 25.1658 54.5031 26.0205 54.669 26.8444C54.8349 27.6684 55.2412 28.4248 55.8367 29.018C56.4322 29.6112 57.19 30.0147 58.0146 30.1775C58.8392 30.3403 59.6936 30.2551 60.4698 29.9327C61.2461 29.6103 61.9094 29.0652 62.376 28.3661C62.8426 27.667 63.0917 26.8453 63.0916 26.0048C63.0999 25.4426 62.995 24.8845 62.7832 24.3637C62.5714 23.8429 62.2569 23.3701 61.8586 22.9733C61.4603 22.5765 60.9863 22.2638 60.4647 22.054C59.9431 21.8441 59.3846 21.7413 58.8224 21.7517ZM58.8224 28.5825C58.3048 28.6194 57.7881 28.4996 57.3395 28.2387C56.8909 27.9778 56.5312 27.5879 56.3074 27.1198C56.0835 26.6516 56.0057 26.1269 56.0842 25.6139C56.1627 25.101 56.3938 24.6235 56.7475 24.2438C57.1011 23.864 57.5609 23.5995 58.067 23.4847C58.5731 23.3699 59.102 23.4101 59.5849 23.6001C60.0678 23.7902 60.4823 24.1212 60.7744 24.5501C61.0666 24.9789 61.2228 25.4859 61.2228 26.0048C61.2386 26.3326 61.1885 26.6603 61.0757 26.9685C60.9629 27.2767 60.7895 27.5593 60.5658 27.7995C60.3421 28.0397 60.0727 28.2327 59.7733 28.3672C59.4739 28.5016 59.1506 28.5749 58.8224 28.5825ZM47.7436 23.0567V24.861H52.0613C51.999 25.7073 51.6527 26.5078 51.0785 27.1326C50.6459 27.5736 50.1255 27.9191 49.5511 28.1466C48.9767 28.3741 48.361 28.4787 47.7436 28.4536C46.4816 28.4365 45.2771 27.9232 44.3907 27.0247C43.5043 26.1262 43.0073 24.9148 43.0073 23.6527C43.0073 22.3906 43.5043 21.1792 44.3907 20.2807C45.2771 19.3822 46.4816 18.8689 47.7436 18.8518C48.9559 18.836 50.1254 19.2991 50.998 20.1406L52.2707 18.8679C51.6753 18.2784 50.9682 17.8137 50.1908 17.5011C49.4134 17.1885 48.5814 17.0343 47.7436 17.0474C46.8681 17.0347 45.9988 17.1961 45.1863 17.5223C44.3737 17.8485 43.6341 18.3331 43.0105 18.9477C42.3868 19.5623 41.8916 20.2948 41.5536 21.1025C41.2156 21.9102 41.0415 22.7771 41.0415 23.6527C41.0415 24.5283 41.2156 25.3952 41.5536 26.2029C41.8916 27.0106 42.3868 27.7431 43.0105 28.3577C43.6341 28.9723 44.3737 29.4569 45.1863 29.7831C45.9988 30.1093 46.8681 30.2707 47.7436 30.258C48.5991 30.2935 49.4523 30.1466 50.2467 29.8272C51.0411 29.5078 51.7585 29.0231 52.3512 28.4053C53.4037 27.2566 53.9646 25.7415 53.914 24.1844C53.9182 23.8063 53.8858 23.4286 53.8172 23.0567H47.7436ZM93.0519 24.4582C92.7963 23.6878 92.3098 23.0148 91.6584 22.5306C91.007 22.0464 90.2223 21.7744 89.4109 21.7517C88.8645 21.7551 88.3244 21.8693 87.8233 22.0873C87.3222 22.3053 86.8705 22.6227 86.4956 23.0203C86.1206 23.4178 85.8302 23.8873 85.6418 24.4002C85.4534 24.9132 85.371 25.4591 85.3995 26.0048C85.3872 26.564 85.4877 27.1199 85.6951 27.6394C85.9025 28.1588 86.2124 28.6312 86.6064 29.0282C87.0003 29.4252 87.4703 29.7387 87.9882 29.95C88.506 30.1613 89.0612 30.266 89.6204 30.258C90.3211 30.2619 91.0117 30.0917 91.6303 29.7627C92.249 29.4337 92.7762 28.9562 93.1646 28.3731L91.7147 27.4065C91.4975 27.7672 91.1903 28.0653 90.8231 28.2715C90.456 28.4776 90.0415 28.5848 89.6204 28.5825C89.1871 28.5991 88.7589 28.4851 88.3911 28.2552C88.0234 28.0254 87.7332 27.6904 87.5582 27.2937L93.2453 24.9416L93.0519 24.4582ZM87.2522 25.876C87.2322 25.5664 87.2741 25.256 87.3755 24.9628C87.4769 24.6697 87.6358 24.3997 87.8428 24.1686C88.0498 23.9376 88.3008 23.7502 88.5811 23.6174C88.8615 23.4845 89.1655 23.4089 89.4754 23.395C89.798 23.3738 90.1198 23.448 90.4006 23.6084C90.6814 23.7689 90.9087 24.0084 91.0542 24.2972L87.2522 25.876ZM82.6284 30.0002H84.4972V17.4986H82.6284V30.0002ZM79.5674 22.7022H79.503C79.2189 22.3935 78.8722 22.149 78.486 21.9851C78.0998 21.8212 77.6831 21.7416 77.2636 21.7517C76.167 21.7984 75.1307 22.2669 74.3712 23.0594C73.6117 23.8519 73.1877 24.9072 73.1877 26.0048C73.1877 27.1025 73.6117 28.1578 74.3712 28.9503C75.1307 29.7428 76.167 30.2113 77.2636 30.258C77.6847 30.2692 78.1032 30.1885 78.4899 30.0216C78.8767 29.8547 79.2224 29.6055 79.503 29.2914H79.5674V29.9036C79.5674 31.5308 78.6975 32.4007 77.2958 32.4007C76.8287 32.3895 76.3755 32.2395 75.9939 31.9698C75.6123 31.7001 75.3197 31.3229 75.1532 30.8863L73.526 31.563C73.8327 32.3097 74.3554 32.9478 75.027 33.3955C75.6986 33.8433 76.4887 34.0803 77.2958 34.0762C79.4869 34.0762 81.3396 32.7874 81.3396 29.6458V22.0094H79.5674V22.7022ZM77.4248 28.5825C76.7789 28.5277 76.1771 28.2324 75.7385 27.7551C75.2999 27.2777 75.0565 26.6531 75.0565 26.0048C75.0565 25.3566 75.2999 24.732 75.7385 24.2546C76.1771 23.7773 76.7789 23.482 77.4248 23.4272C77.7462 23.4429 78.0611 23.5231 78.3508 23.6631C78.6405 23.8031 78.899 24 79.111 24.242C79.323 24.4841 79.484 24.7663 79.5846 25.0719C79.6852 25.3775 79.7232 25.7003 79.6963 26.0209C79.7215 26.3395 79.6821 26.66 79.5805 26.963C79.4789 27.2661 79.3173 27.5455 79.1052 27.7847C78.8932 28.0238 78.6351 28.2177 78.3463 28.3548C78.0576 28.4919 77.7442 28.5693 77.4248 28.5825ZM101.806 17.4988H97.3346V30.0002H99.2003V25.2638H101.806C102.334 25.2927 102.862 25.2138 103.358 25.0317C103.854 24.8497 104.308 24.5684 104.692 24.205C105.076 23.8416 105.381 23.4038 105.59 22.9183C105.799 22.4328 105.907 21.9098 105.907 21.3813C105.907 20.8528 105.799 20.3298 105.59 19.8443C105.381 19.3588 105.076 18.9209 104.692 18.5576C104.308 18.1942 103.854 17.9129 103.358 17.7309C102.862 17.5488 102.334 17.4699 101.806 17.4988ZM101.854 23.524H99.2003V19.2387H101.854C102.139 19.2328 102.422 19.2838 102.688 19.3889C102.953 19.4939 103.194 19.6508 103.398 19.8503C103.602 20.0499 103.764 20.2881 103.874 20.551C103.985 20.8139 104.041 21.0962 104.041 21.3813C104.041 21.6665 103.985 21.9488 103.874 22.2117C103.764 22.4746 103.602 22.7128 103.398 22.9124C103.194 23.1119 102.953 23.2688 102.688 23.3738C102.422 23.4789 102.139 23.5299 101.854 23.524ZM113.386 21.7287C112.705 21.6889 112.027 21.8489 111.435 22.1888C110.844 22.5288 110.365 23.0341 110.056 23.6426L111.713 24.3342C111.877 24.0322 112.126 23.7846 112.429 23.6218C112.732 23.4589 113.075 23.3879 113.418 23.4174C113.891 23.3712 114.363 23.5145 114.731 23.816C115.099 24.1175 115.332 24.5525 115.38 25.0257V25.1544C114.781 24.8361 114.112 24.6703 113.434 24.6719C111.649 24.6719 109.831 25.653 109.831 27.4865C109.849 27.8729 109.943 28.2519 110.11 28.601C110.277 28.95 110.512 29.2621 110.801 29.5186C111.091 29.7751 111.429 29.9709 111.795 30.0942C112.162 30.2176 112.55 30.266 112.935 30.2367C113.405 30.2644 113.874 30.1655 114.292 29.9506C114.711 29.7356 115.064 29.4123 115.316 29.0144H115.38V29.9794H117.181V25.1866C117.181 22.9671 115.525 21.7287 113.386 21.7287ZM113.16 28.5801C112.549 28.5801 111.697 28.2746 111.697 27.5186C111.697 26.5537 112.758 26.1837 113.675 26.1837C114.271 26.1678 114.859 26.3123 115.38 26.6019C115.311 27.1441 115.049 27.6432 114.641 28.0069C114.233 28.3705 113.707 28.5742 113.16 28.5801ZM123.743 22.0021L121.604 27.4221H121.54L119.32 22.0021H117.31L120.639 29.5773L118.741 33.7911H120.687L125.818 22.0021H123.743ZM106.936 30.0002H108.802V17.4988H106.936V30.0002Z" fill="white"/>
<path d="M10.4354 7.5381C10.1075 7.93017 9.94194 8.4328 9.97263 8.943V31.0591C9.94185 31.5693 10.1074 32.072 10.4354 32.464L10.5094 32.5361L22.8984 20.1472V19.8549L10.5094 7.4655L10.4354 7.5381Z" fill="url(#paint0_linear)"/>
<path d="M27.0276 24.2786L22.8982 20.1472V19.8549L27.0286 15.7245L27.1217 15.7776L32.0145 18.5577C33.4121 19.3517 33.4121 20.6509 32.0145 21.4454L27.1217 24.2255L27.0276 24.2786Z" fill="url(#paint1_linear)"/>
<path d="M27.1218 24.225L22.8983 20.0011L10.4353 32.464C10.7201 32.7152 11.0837 32.8588 11.4633 32.87C11.8428 32.8812 12.2143 32.7593 12.5134 32.5254L27.1218 24.225Z" fill="url(#paint2_linear)"/>
<path d="M27.1218 15.7771L12.5134 7.4767C12.2143 7.2428 11.8428 7.12089 11.4633 7.1321C11.0837 7.14332 10.7201 7.28695 10.4353 7.5381L22.8983 20.0011L27.1218 15.7771Z" fill="url(#paint3_linear)"/>
<path opacity="0.2" d="M27.0287 24.132L12.5134 32.3793C12.2258 32.5982 11.8748 32.7177 11.5134 32.7196C11.152 32.7215 10.7997 32.6059 10.5098 32.39L10.4353 32.4645L10.5093 32.5366L10.5098 32.5361C10.7997 32.7521 11.1519 32.8678 11.5134 32.8659C11.8749 32.864 12.2259 32.7444 12.5134 32.5254L27.1218 24.225L27.0287 24.132Z" fill="black"/>
<path opacity="0.12" d="M10.4352 32.3184C10.1073 31.9263 9.94171 31.4237 9.97236 30.9135V31.0596C9.94169 31.5698 10.1073 32.0724 10.4352 32.4645L10.5097 32.39L10.4352 32.3184Z" fill="black"/>
<path opacity="0.12" d="M32.0147 21.2988L27.0288 24.132L27.1219 24.225L32.0147 21.4449C32.3025 21.32 32.5516 21.1202 32.7359 20.8663C32.9203 20.6125 33.0332 20.3138 33.063 20.0015C33.0011 20.2843 32.8742 20.5489 32.6922 20.7741C32.5102 20.9993 32.2782 21.1789 32.0147 21.2988Z" fill="black"/>
<path opacity="0.25" d="M12.5133 7.6233L32.0145 18.7033C32.2782 18.8231 32.5102 19.0029 32.6922 19.2282C32.8742 19.4535 33.0011 19.7181 33.0628 20.0011C33.0333 19.6886 32.9204 19.3898 32.7361 19.1359C32.5517 18.8819 32.3025 18.682 32.0145 18.5572L12.5133 7.4772C11.1157 6.6831 9.97241 7.3427 9.97241 8.9435V9.0896C9.97241 7.4889 11.1157 6.8293 12.5133 7.6233Z" fill="white"/>
</g>
<defs>
<linearGradient id="paint0_linear" x1="21.7997" y1="8.70981" x2="5.01736" y2="25.4922" gradientUnits="userSpaceOnUse">
<stop stop-color="#00A0FF"/>
<stop offset="0.00657" stop-color="#00A1FF"/>
<stop offset="0.2601" stop-color="#00BEFF"/>
<stop offset="0.5122" stop-color="#00D2FF"/>
<stop offset="0.7604" stop-color="#00DFFF"/>
<stop offset="1" stop-color="#00E3FF"/>
</linearGradient>
<linearGradient id="paint1_linear" x1="33.8342" y1="20.0016" x2="9.6373" y2="20.0016" gradientUnits="userSpaceOnUse">
<stop stop-color="#FFE000"/>
<stop offset="0.4087" stop-color="#FFBD00"/>
<stop offset="0.7754" stop-color="#FFA500"/>
<stop offset="1" stop-color="#FF9C00"/>
</linearGradient>
<linearGradient id="paint2_linear" x1="24.8269" y1="22.2962" x2="2.06857" y2="45.0545" gradientUnits="userSpaceOnUse">
<stop stop-color="#FF3A44"/>
<stop offset="1" stop-color="#C31162"/>
</linearGradient>
<linearGradient id="paint3_linear" x1="7.29723" y1="0.176286" x2="17.4598" y2="10.3388" gradientUnits="userSpaceOnUse">
<stop stop-color="#32A071"/>
<stop offset="0.0685" stop-color="#2DA771"/>
<stop offset="0.4762" stop-color="#15CF74"/>
<stop offset="0.8009" stop-color="#06E775"/>
<stop offset="1" stop-color="#00F076"/>
</linearGradient>
<clipPath id="clip0">
<rect width="135" height="40" fill="white"/>
</clipPath>
</defs>
</svg>
